<?xml version="1.0" standalone="no"?>
<!DOCTYPE svg PUBLIC "-//W3C//DTD SVG 20010904//EN"
 "http://www.w3.org/TR/2001/REC-SVG-20010904/DTD/svg10.dtd">
<svg version="1.0" xmlns="http://www.w3.org/2000/svg"
 width="128.000000pt" height="128.000000pt" viewBox="0 0 128.000000 128.000000"
 preserveAspectRatio="xMidYMid meet">

<g transform="translate(0.000000,128.000000) scale(0.100000,-0.100000)"
fill="#000000" stroke="none">
<path d="M510 1183 c-29 -54 -53 -99 -54 -100 -2 -2 -49 13 -106 32 l-103 35
-59 -58 -58 -59 35 -103 c19 -57 34 -104 32 -106 -1 -1 -46 -25 -99 -54 l-98
-52 0 -79 0 -79 100 -50 99 -50 -14 -47 c-8 -27 -23 -75 -35 -107 l-20 -59 58
-58 59 -59 103 35 c80 27 106 32 112 22 4 -6 28 -51 53 -99 l46 -88 79 0 80 0
50 100 c28 55 52 100 53 100 2 0 50 -16 107 -35 l103 -35 59 58 58 59 -35 103
c-19 57 -35 105 -35 107 0 1 45 25 100 53 l100 50 0 80 0 79 -87 46 c-49 25
-94 49 -100 53 -10 6 -5 32 22 112 l35 103 -58 59 -59 58 -103 -35 c-57 -19
-105 -35 -107 -35 -1 0 -25 45 -53 100 l-50 100 -79 0 -79 0 -52 -97z m216
-278 c64 -19 128 -73 162 -139 38 -73 38 -179 0 -251 -53 -101 -134 -150 -248
-150 -62 1 -84 5 -126 27 -66 34 -120 98 -139 162 -33 109 -9 203 69 282 79
78 173 102 282 69z"/>
<path d="M481 647 c-35 -103 -35 -107 -20 -107 5 0 15 14 20 30 10 26 16 30
48 30 32 0 38 -4 48 -30 6 -16 17 -30 23 -30 7 0 10 6 7 13 -2 6 -17 51 -33
100 -38 118 -52 117 -93 -6z m58 41 c25 -66 24 -68 -8 -68 -35 0 -35 -1 -19
51 13 45 16 47 27 17z"/>
<path d="M650 640 c0 -60 4 -100 10 -100 6 0 10 18 10 40 0 37 2 40 28 40 41
0 72 26 72 60 0 41 -24 60 -76 60 l-44 0 0 -100z m90 65 c22 -26 -3 -65 -40
-65 -28 0 -30 2 -30 40 0 37 2 40 29 40 16 0 34 -7 41 -15z"/>
<path d="M810 640 c0 -82 3 -100 15 -100 12 0 15 18 15 100 0 82 -3 100 -15
100 -12 0 -15 -18 -15 -100z"/>
</g>
</svg>
