<?xml version="1.0" standalone="no"?>
<!DOCTYPE svg PUBLIC "-//W3C//DTD SVG 20010904//EN"
 "http://www.w3.org/TR/2001/REC-SVG-20010904/DTD/svg10.dtd">
<svg version="1.0" xmlns="http://www.w3.org/2000/svg"
 width="694.000000pt" height="736.000000pt" viewBox="0 0 694.000000 736.000000"
 preserveAspectRatio="xMidYMid meet">

<g transform="translate(0.000000,736.000000) scale(0.100000,-0.100000)"
fill="#000000" stroke="none">
<path d="M1754 6842 c-129 -45 -194 -154 -194 -327 l0 -63 -172 -4 c-149 -3
-179 -6 -219 -25 -58 -26 -116 -83 -143 -142 l-21 -46 -3 -1535 c-3 -1695 -6
-1594 61 -1682 20 -27 55 -54 92 -73 l59 -30 930 -3 c723 -2 932 -5 938 -15 4
-6 8 -58 8 -114 0 -99 -1 -103 -30 -136 -78 -89 -370 -181 -810 -257 -290 -50
-447 -121 -599 -270 -131 -128 -165 -196 -121 -240 19 -19 33 -20 385 -20 352
0 366 1 385 20 20 20 26 65 12 86 -20 30 -55 34 -318 34 l-267 0 24 26 c33 36
133 106 195 137 80 41 167 64 334 92 319 53 602 130 745 202 93 47 140 85 173
141 26 45 27 53 27 179 l0 133 276 0 275 0 0 -128 c0 -113 3 -133 23 -175 71
-147 372 -259 955 -357 140 -24 224 -49 309 -92 67 -34 149 -92 186 -132 l24
-26 -1177 0 -1177 0 -24 -25 c-32 -31 -32 -59 0 -90 l24 -25 1266 0 c1252 0
1265 0 1285 20 35 35 26 72 -40 154 -108 136 -263 244 -432 302 -40 13 -126
33 -193 44 -387 65 -618 126 -775 205 -97 49 -112 69 -118 159 -2 41 -1 95 2
120 l7 46 913 0 c1007 0 972 -2 1058 63 24 18 56 57 73 87 l30 55 0 1565 0
1565 -22 41 c-36 67 -70 101 -131 131 -54 26 -65 28 -229 32 l-173 3 0 77 c0
148 -52 246 -157 298 l-58 28 -1710 2 c-1612 2 -1713 1 -1761 -15z m3474 -142
c18 -11 41 -34 52 -52 19 -31 20 -51 20 -301 l0 -267 -1797 2 -1798 3 0 272
c0 259 1 273 21 300 11 15 36 36 55 45 32 17 135 18 1724 18 1669 0 1690 0
1723 -20z m-3668 -467 c0 -43 1 -638 3 -1323 l2 -1245 23 -50 c28 -61 62 -98
122 -133 l45 -27 1745 0 1745 0 41 22 c59 31 121 106 139 166 13 44 15 227 15
1359 l0 1308 153 0 c172 0 204 -9 244 -69 l23 -34 -2 -1538 -3 -1537 -25 -27
c-55 -59 117 -55 -2332 -55 -2230 0 -2253 0 -2286 20 -18 11 -41 34 -52 52
-20 33 -20 54 -20 1559 l0 1526 23 34 c40 60 72 69 245 69 l152 0 0 -77z
m3740 -1411 c0 -1081 -1 -1129 -19 -1162 -10 -19 -34 -44 -52 -55 -34 -20 -52
-20 -1729 -20 -1671 0 -1695 0 -1728 20 -18 11 -41 38 -52 60 -20 40 -20 66
-20 1156 0 614 3 1119 7 1122 3 4 813 7 1800 7 l1793 0 0 -1128z"/>
<path d="M3611 6458 c-37 -20 -48 -64 -24 -97 20 -26 23 -26 151 -29 l130 -3
21 27 c26 33 27 55 2 85 -18 22 -27 24 -138 27 -81 2 -126 -1 -142 -10z"/>
<path d="M4186 6449 c-32 -25 -35 -70 -6 -99 18 -18 33 -20 145 -20 112 0 127
2 145 20 29 29 26 74 -6 99 -23 18 -41 21 -139 21 -98 0 -116 -3 -139 -21z"/>
<path d="M4765 6445 c-31 -30 -32 -65 -2 -93 21 -20 34 -22 143 -22 138 0 164
10 164 63 0 64 -28 77 -170 77 -104 0 -112 -1 -135 -25z"/>
<path d="M2005 5468 c-28 -16 -35 -28 -35 -64 0 -55 21 -64 158 -64 118 0 121
0 141 26 27 35 26 59 -4 89 -23 24 -31 25 -132 25 -62 0 -117 -5 -128 -12z"/>
<path d="M2545 5468 c-28 -16 -35 -28 -35 -65 0 -67 -85 -63 1270 -61 l1223 3
19 26 c14 18 17 33 12 53 -14 59 48 56 -1266 56 -878 -1 -1208 -4 -1223 -12z"/>
<path d="M2799 4716 c-102 -27 -190 -103 -238 -205 -23 -49 -26 -69 -26 -156
0 -95 2 -103 34 -163 71 -130 182 -196 331 -196 105 0 178 26 247 89 144 129
163 354 42 506 -87 111 -250 163 -390 125z m213 -148 c23 -12 57 -42 74 -65
139 -183 -36 -434 -259 -372 -48 13 -112 69 -140 123 -30 57 -29 155 1 213 25
48 85 101 133 120 49 18 140 10 191 -19z"/>
<path d="M3599 4716 c-102 -27 -190 -103 -238 -205 -23 -49 -26 -69 -26 -156
0 -95 2 -103 34 -163 41 -76 103 -135 179 -170 49 -23 70 -27 152 -27 88 0
101 3 162 33 78 38 138 101 177 182 22 47 26 68 26 150 -1 105 -17 157 -76
231 -87 111 -250 163 -390 125z m216 -150 c164 -97 160 -331 -8 -417 -118 -61
-260 -13 -321 107 -45 90 -24 201 53 274 26 25 62 51 81 58 55 18 143 8 195
-22z"/>
<path d="M4157 4692 c-15 -17 -17 -55 -17 -338 0 -236 3 -323 12 -332 7 -7 29
-12 49 -12 59 0 69 23 69 157 l0 113 81 0 c68 0 89 4 128 25 70 39 105 95 109
176 5 74 -14 124 -65 170 -55 52 -82 59 -221 59 -112 0 -131 -2 -145 -18z
m277 -133 c21 -16 26 -29 26 -64 0 -64 -31 -85 -121 -85 l-69 0 0 85 0 85 69
0 c54 0 74 -4 95 -21z"/>
<path d="M2134 4505 c-105 -105 -134 -141 -134 -162 0 -21 30 -56 137 -165
147 -148 170 -161 213 -118 40 40 28 67 -82 177 l-103 103 103 103 c79 80 102
108 102 130 0 36 -32 67 -71 67 -27 0 -50 -19 -165 -135z"/>
<path d="M4750 4620 c-39 -39 -27 -65 82 -176 l102 -104 -102 -104 c-110 -111
-122 -137 -80 -176 44 -41 64 -30 211 118 113 113 137 142 137 166 0 24 -24
53 -133 162 -115 117 -136 134 -165 134 -19 0 -40 -8 -52 -20z"/>
<path d="M2565 1975 c-30 -30 -31 -54 -4 -89 14 -17 30 -26 50 -26 65 0 93 80
43 119 -35 27 -59 26 -89 -4z"/>
<path d="M960 918 c-19 -7 -58 -35 -86 -63 -61 -61 -79 -114 -72 -215 7 -90
42 -151 112 -195 42 -26 61 -30 131 -33 67 -3 89 0 128 18 118 56 175 197 131
327 -37 110 -112 165 -233 169 -42 2 -92 -2 -111 -8z m208 -80 c107 -72 113
-253 9 -332 -40 -31 -103 -46 -154 -37 -48 9 -71 22 -105 58 -96 101 -69 260
57 328 46 25 142 16 193 -17z"/>
<path d="M6137 919 c-14 -8 -17 -25 -17 -104 l0 -94 -36 24 c-72 49 -172 28
-227 -47 -22 -29 -34 -118 -23 -162 9 -36 65 -96 103 -112 77 -33 173 -3 220
67 28 42 28 44 31 230 3 174 2 188 -15 197 -12 7 -25 7 -36 1z m-61 -226 c20
-13 31 -32 47 -85 10 -29 -13 -86 -44 -112 -83 -70 -201 3 -186 115 12 90 107
132 183 82z"/>
<path d="M1427 914 c-13 -14 -7 -346 7 -387 52 -143 251 -158 327 -24 28 50
24 152 -7 194 -56 76 -156 97 -227 49 l-36 -25 -3 97 c-3 96 -3 97 -28 100
-14 2 -29 0 -33 -4z m218 -208 c86 -36 100 -167 23 -220 -36 -25 -101 -20
-137 10 -72 60 -53 188 32 213 44 13 43 13 82 -3z"/>
<path d="M1886 901 c-21 -23 -14 -57 13 -66 45 -14 76 32 45 66 -9 10 -22 19
-29 19 -7 0 -20 -9 -29 -19z"/>
<path d="M4136 904 c-20 -20 -20 -38 0 -59 20 -20 42 -16 60 10 12 18 11 24
-2 43 -18 26 -37 28 -58 6z"/>
<path d="M2873 883 c-9 -3 -13 -26 -13 -63 0 -57 -1 -59 -27 -62 -22 -2 -28
-8 -28 -28 0 -20 6 -26 28 -28 l27 -3 0 -102 c0 -124 16 -159 80 -178 46 -14
72 -5 78 26 4 20 -14 35 -44 35 -42 0 -54 29 -54 128 l0 92 34 0 c18 0 39 7
46 15 19 22 -5 45 -46 45 l-34 0 0 53 c0 29 -5 58 -12 65 -13 13 -16 13 -35 5z"/>
<path d="M5212 878 c-7 -7 -12 -36 -12 -64 0 -50 -1 -53 -27 -56 -22 -2 -28
-8 -28 -28 0 -20 6 -26 28 -28 l27 -3 0 -101 c0 -114 13 -148 66 -173 54 -25
94 -17 94 20 0 23 -17 35 -50 35 -36 0 -50 38 -50 132 l0 88 29 0 c42 0 61 9
61 30 0 21 -19 30 -61 30 -29 0 -29 0 -29 59 0 44 -4 60 -16 65 -20 8 -18 8
-32 -6z"/>
<path d="M1886 754 c-3 -9 -6 -96 -6 -194 0 -171 -1 -180 -22 -204 -13 -14
-39 -29 -58 -34 -28 -7 -35 -13 -35 -33 0 -20 5 -24 35 -27 51 -4 101 27 128
78 20 41 22 57 22 225 0 186 -4 205 -41 205 -9 0 -20 -7 -23 -16z"/>
<path d="M2140 763 c-110 -41 -147 -204 -67 -292 30 -32 94 -61 140 -61 37 0
98 20 124 41 19 16 -3 53 -25 43 -70 -29 -95 -34 -131 -24 -40 11 -75 42 -85
77 -7 22 -7 22 131 25 l138 3 3 35 c4 49 -34 119 -78 142 -33 17 -116 23 -150
11z m136 -77 c59 -59 50 -66 -76 -66 -60 0 -110 2 -110 5 0 20 35 67 58 79 47
26 90 20 128 -18z"/>
<path d="M2524 756 c-54 -24 -88 -79 -92 -152 -4 -54 -1 -70 22 -108 46 -79
152 -109 236 -66 27 14 40 27 40 41 0 27 -25 34 -55 15 -31 -20 -104 -21 -133
0 -49 34 -65 108 -37 169 29 60 109 78 164 37 35 -26 59 -28 68 -7 6 18 -21
51 -59 71 -34 18 -113 17 -154 0z"/>
<path d="M3431 754 c-18 -10 -45 -35 -60 -58 -21 -33 -26 -51 -26 -106 0 -54
5 -73 25 -103 72 -107 248 -100 307 13 43 81 21 192 -48 241 -44 31 -148 38
-198 13z m159 -63 c88 -64 45 -221 -60 -221 -56 0 -94 22 -115 66 -55 116 73
231 175 155z"/>
<path d="M3806 754 c-3 -9 -6 -84 -6 -169 0 -127 3 -155 16 -166 11 -9 20 -10
32 -2 14 8 17 31 20 130 2 114 4 121 28 144 21 20 36 24 87 24 52 0 62 3 65
19 5 26 -15 36 -74 36 -36 0 -59 -6 -77 -20 l-26 -20 -6 20 c-8 24 -50 27 -59
4z"/>
<path d="M4137 763 c-4 -3 -7 -79 -7 -168 0 -136 3 -165 16 -176 11 -9 20 -10
32 -2 15 9 17 33 20 168 2 107 -1 162 -9 171 -12 15 -41 19 -52 7z"/>
<path d="M4389 747 c-18 -12 -44 -38 -57 -57 -33 -48 -29 -158 7 -209 47 -66
154 -89 239 -51 43 19 52 39 29 59 -10 8 -27 5 -65 -11 -49 -21 -52 -21 -96
-4 -43 17 -76 54 -76 86 0 6 47 10 134 10 95 0 135 3 138 12 8 22 -8 96 -26
123 -44 66 -159 88 -227 42z m161 -52 c10 -9 23 -30 29 -46 l10 -29 -110 0
c-85 0 -109 3 -109 14 0 19 39 66 64 77 30 13 94 4 116 -16z"/>
<path d="M4742 758 c-8 -8 -12 -60 -12 -169 0 -131 3 -159 16 -170 11 -9 20
-10 32 -2 14 8 18 33 22 130 3 80 10 125 19 136 32 39 130 39 162 0 9 -10 16
-56 19 -134 5 -125 15 -153 48 -133 26 17 25 247 -1 287 -41 63 -143 87 -211
52 -27 -14 -31 -14 -38 0 -11 18 -39 20 -56 3z"/>
<path d="M5540 763 c-63 -24 -109 -95 -110 -171 0 -137 138 -221 266 -163 51
23 57 33 39 57 -12 17 -16 17 -36 5 -81 -49 -180 -22 -203 56 -7 22 -7 22 131
25 l138 3 3 35 c4 49 -34 119 -78 142 -33 17 -116 23 -150 11z m136 -77 c59
-59 50 -66 -76 -66 -60 0 -110 2 -110 5 0 20 35 67 58 79 47 26 90 20 128 -18z"/>
<path d="M3074 605 c-3 -8 -3 -22 0 -30 5 -13 23 -15 103 -13 97 3 98 3 98 28
0 25 -1 25 -98 28 -80 2 -98 0 -103 -13z"/>
</g>
</svg>
